<svg width="108" height="36" viewBox="0 0 108 36" fill="none" xmlns="http://www.w3.org/2000/svg">
<g clip-path="url(#clip0_0_945)">
<rect x="0.5" y="0.5" width="107" height="35" fill="#F0F0F0" stroke="#151515"/>
<path d="M25.6288 23H27.8968L25.0408 13.13H20.4208L17.5788 23H19.8468L20.7288 19.836H24.7328L25.6288 23ZM21.2748 17.876L22.4508 13.69H23.0108L24.1868 17.876H21.2748ZM28.8849 23H32.5249C35.1009 23 37.1589 22.622 37.1589 20.382C37.1589 18.282 35.5629 18.142 34.0649 18.086V17.526C35.1149 17.442 36.4309 17.4 36.4309 15.552C36.4309 13.606 35.1009 13.13 32.3569 13.13H28.8849V23ZM31.1249 16.882V15.09H32.6369C33.5469 15.09 34.1909 15.09 34.1909 15.986C34.1909 16.882 33.5469 16.882 32.6369 16.882H31.1249ZM31.1249 21.04V18.842H32.8049C34.1349 18.842 34.9189 18.842 34.9189 19.948C34.9189 21.04 34.1349 21.04 32.8049 21.04H31.1249ZM37.7273 18.058C37.7273 20.942 39.6313 23.14 42.7673 23.14C45.8893 23.14 47.7933 20.942 47.7933 18.058C47.7933 15.188 45.8893 12.99 42.7673 12.99C39.6313 12.99 37.7273 15.188 37.7273 18.058ZM39.9673 18.058C39.9673 16.168 40.9053 14.95 42.7673 14.95C44.6293 14.95 45.5533 16.168 45.5533 18.058C45.5533 19.962 44.6293 21.18 42.7673 21.18C40.9053 21.18 39.9673 19.962 39.9673 18.058ZM48.9213 19.332C48.9213 21.796 50.4473 23.14 53.3733 23.14C56.2993 23.14 57.8393 21.796 57.8393 19.332V13.13H55.5993V18.338C55.5993 20.102 55.4313 21.18 53.3733 21.18C51.3153 21.18 51.1613 20.102 51.1613 18.338V13.13H48.9213V19.332ZM67.5105 13.13H58.8165V15.09H62.0505V23H64.2905V15.09H67.5105V13.13ZM72.4096 19.332C72.4096 21.796 73.9356 23.14 76.8616 23.14C79.7876 23.14 81.3276 21.796 81.3276 19.332V13.13H79.0876V18.338C79.0876 20.102 78.9196 21.18 76.8616 21.18C74.8036 21.18 74.6496 20.102 74.6496 18.338V13.13H72.4096V19.332ZM91.282 20.284C91.282 18.226 88.496 17.442 86.676 16.826C85.094 16.294 84.856 16.126 84.856 15.678C84.856 15.174 85.486 14.95 86.494 14.95C87.712 14.95 88.636 15.286 88.636 16.49H90.876C90.876 14.53 89.518 12.99 86.494 12.99C83.946 12.99 82.616 13.914 82.616 15.594C82.616 17.526 84.31 18.086 86.396 18.786C87.838 19.276 89.042 19.598 89.042 20.312C89.042 20.844 88.566 21.18 87.124 21.18C85.164 21.18 84.408 20.704 84.408 19.192H82.168C82.168 21.684 83.498 23.14 87.054 23.14C90.092 23.14 91.282 21.978 91.282 20.284Z" fill="#151515"/>
</g>
<defs>
<clipPath id="clip0_0_945">
<rect width="108" height="36" fill="white"/>
</clipPath>
</defs>
</svg>
