<svg width="155" height="36" viewBox="0 0 155 36" fill="none" xmlns="http://www.w3.org/2000/svg">
<g clip-path="url(#clip0_0_271)">
<rect x="0.5" y="0.5" width="154" height="35" fill="#F0F0F0" stroke="#151515"/>
<path d="M26.0712 13.13V17.218H21.1152V13.13H18.8752V23H21.1152V19.178H26.0712V23H28.3112V13.13H26.0712ZM29.4266 18.058C29.4266 20.942 31.3306 23.14 34.4666 23.14C37.5886 23.14 39.4926 20.942 39.4926 18.058C39.4926 15.188 37.5886 12.99 34.4666 12.99C31.3306 12.99 29.4266 15.188 29.4266 18.058ZM31.6666 18.058C31.6666 16.168 32.6046 14.95 34.4666 14.95C36.3286 14.95 37.2526 16.168 37.2526 18.058C37.2526 19.962 36.3286 21.18 34.4666 21.18C32.6046 21.18 31.6666 19.962 31.6666 18.058ZM39.9167 13.13L41.6107 23H46.2587L47.5327 13.69H48.0927L49.3667 23H54.0147L55.7087 13.13H53.5387L51.9707 22.44H51.4107L50.1927 13.13H45.4327L44.2147 22.44H43.6547L42.0867 13.13H39.9167ZM67.3321 15.09V13.13H60.6121V15.09H62.8521V21.04H60.6121V23H67.3321V21.04H65.0921V15.09H67.3321ZM77.1472 13.13H68.4532V15.09H71.6872V23H73.9272V15.09H77.1472V13.13ZM81.7663 13.13L83.4603 23H88.1083L89.3823 13.69H89.9423L91.2163 23H95.8643L97.5583 13.13H95.3883L93.8203 22.44H93.2603L92.0423 13.13H87.2823L86.0643 22.44H85.5043L83.9363 13.13H81.7663ZM97.8406 18.058C97.8406 20.942 99.7446 23.14 102.881 23.14C106.003 23.14 107.907 20.942 107.907 18.058C107.907 15.188 106.003 12.99 102.881 12.99C99.7446 12.99 97.8406 15.188 97.8406 18.058ZM100.081 18.058C100.081 16.168 101.019 14.95 102.881 14.95C104.743 14.95 105.667 16.168 105.667 18.058C105.667 19.962 104.743 21.18 102.881 21.18C101.019 21.18 100.081 19.962 100.081 18.058ZM109.178 23H111.418V19.528H115.282V23H117.522V19.85C117.522 19.08 117.102 18.66 116.332 18.66H114.89V18.1C116.08 17.96 117.396 17.512 117.396 15.888C117.396 13.676 115.352 13.13 113 13.13H109.178V23ZM111.418 17.568V15.09H113C114.33 15.09 115.156 15.09 115.156 16.336C115.156 17.568 114.33 17.568 113 17.568H111.418ZM128.572 13.13H125.296L121.166 16.63V13.13H118.926V23H121.166V19.514L125.296 23H128.572L122.622 18.072L128.572 13.13ZM137.546 20.284C137.546 18.226 134.76 17.442 132.94 16.826C131.358 16.294 131.12 16.126 131.12 15.678C131.12 15.174 131.75 14.95 132.758 14.95C133.976 14.95 134.9 15.286 134.9 16.49H137.14C137.14 14.53 135.782 12.99 132.758 12.99C130.21 12.99 128.88 13.914 128.88 15.594C128.88 17.526 130.574 18.086 132.66 18.786C134.102 19.276 135.306 19.598 135.306 20.312C135.306 20.844 134.83 21.18 133.388 21.18C131.428 21.18 130.672 20.704 130.672 19.192H128.432C128.432 21.684 129.762 23.14 133.318 23.14C136.356 23.14 137.546 21.978 137.546 20.284Z" fill="#151515"/>
</g>
<defs>
<clipPath id="clip0_0_271">
<rect width="155" height="36" fill="white"/>
</clipPath>
</defs>
</svg>
