<svg width="103" height="36" viewBox="0 0 103 36" fill="none" xmlns="http://www.w3.org/2000/svg">
<g clip-path="url(#clip0_0_255)">
<rect x="0.5" y="0.5" width="102" height="35" fill="#F0F0F0" stroke="#151515"/>
<path d="M22.4963 13.13H18.9543V23H21.1943V20.06H22.4963C24.9883 20.06 26.8923 19.584 26.8923 16.588C26.8923 13.606 24.9883 13.13 22.4963 13.13ZM22.6363 18.1H21.1943V15.09H22.6363C23.9663 15.09 24.6523 15.23 24.6523 16.588C24.6523 17.96 23.9663 18.1 22.6363 18.1ZM28.0187 23H30.2587V19.528H34.1227V23H36.3627V19.85C36.3627 19.08 35.9427 18.66 35.1727 18.66H33.7307V18.1C34.9207 17.96 36.2367 17.512 36.2367 15.888C36.2367 13.676 34.1927 13.13 31.8407 13.13H28.0187V23ZM30.2587 17.568V15.09H31.8407C33.1707 15.09 33.9967 15.09 33.9967 16.336C33.9967 17.568 33.1707 17.568 31.8407 17.568H30.2587ZM44.3468 15.09V13.13H37.6268V15.09H39.8668V21.04H37.6268V23H44.3468V21.04H42.1068V15.09H44.3468ZM44.7635 18.058C44.7635 20.942 46.6955 23.14 49.8315 23.14C52.5895 23.14 54.4095 21.628 54.7035 19.178H52.4635C52.2395 20.48 51.2035 21.18 49.8595 21.18C48.1375 21.18 47.0035 20.102 47.0035 18.058C47.0035 16.028 48.1375 14.95 49.8595 14.95C51.2035 14.95 52.2395 15.636 52.4635 16.938H54.7035C54.4095 14.502 52.5895 12.99 49.8315 12.99C46.6955 12.99 44.7635 15.188 44.7635 18.058ZM61.9835 15.09V13.13H55.2635V15.09H57.5035V21.04H55.2635V23H61.9835V21.04H59.7435V15.09H61.9835ZM63.2511 23H65.4911V15.09L65.0711 13.69H65.6311L68.6131 23H73.0231V13.13H70.7831V21.04L71.2031 22.44H70.6431L67.6611 13.13H63.2511V23ZM74.1443 18.058C74.1443 21.082 75.7683 23.14 78.7223 23.14C81.4383 23.14 82.6563 21.152 82.6703 18.058H83.2303L82.8103 19.598V23H85.0503V18.688C85.0503 17.918 84.6303 17.498 83.8603 17.498H78.7083V19.178H80.9903C80.9903 20.508 80.1503 21.18 78.8063 21.18C77.1823 21.18 76.3843 20.242 76.3843 18.058C76.3843 15.888 77.3923 14.95 79.1143 14.95C80.5983 14.95 81.3403 15.496 81.5643 16.658H83.8043C83.5103 14.502 81.5923 12.99 79.1143 12.99C76.2583 12.99 74.1443 15.048 74.1443 18.058Z" fill="#151515"/>
</g>
<defs>
<clipPath id="clip0_0_255">
<rect width="103" height="36" fill="white"/>
</clipPath>
</defs>
</svg>
