<svg width="76" height="36" viewBox="0 0 76 36" fill="none" xmlns="http://www.w3.org/2000/svg">
<g clip-path="url(#clip0_0_203)">
<rect x="0.5" y="0.5" width="75" height="35" fill="#F0F0F0" stroke="#151515"/>
<path d="M19.9738 23H22.2138V19.92L26.6938 19.64V17.652L22.2138 17.932V15.09H27.0158V13.13H19.9738V23ZM34.7782 23H37.0462L34.1902 13.13H29.5702L26.7282 23H28.9962L29.8782 19.836H33.8822L34.7782 23ZM30.4242 17.876L31.6002 13.69H32.1602L33.3362 17.876H30.4242ZM44.2811 23.42C45.9611 22.51 47.5431 20.858 47.5431 18.058C47.5431 15.048 45.4991 12.99 42.3771 12.99C39.2411 12.99 37.1971 15.188 37.1971 18.058C37.1971 21.082 39.2411 23 41.5651 23C42.8951 23 43.5391 22.706 44.0431 22.286L44.3511 22.79C42.8391 23.644 40.8091 23.77 39.3951 23.91L39.5771 25.73C43.0771 25.226 45.4431 25.128 49.3071 25.66V23.7C47.0811 23.406 45.6951 23.308 44.2811 23.42ZM42.3771 21.18C40.5151 21.18 39.4371 19.962 39.4371 18.058C39.4371 16.168 40.5151 14.95 42.3771 14.95C44.2391 14.95 45.3031 16.168 45.3031 18.058C45.3031 19.962 44.2391 21.18 42.3771 21.18ZM57.4471 20.284C57.4471 18.226 54.6611 17.442 52.8411 16.826C51.2591 16.294 51.0211 16.126 51.0211 15.678C51.0211 15.174 51.6511 14.95 52.6591 14.95C53.8771 14.95 54.8011 15.286 54.8011 16.49H57.0411C57.0411 14.53 55.6831 12.99 52.6591 12.99C50.1111 12.99 48.7811 13.914 48.7811 15.594C48.7811 17.526 50.4751 18.086 52.5611 18.786C54.0031 19.276 55.2071 19.598 55.2071 20.312C55.2071 20.844 54.7311 21.18 53.2891 21.18C51.3291 21.18 50.5731 20.704 50.5731 19.192H48.3331C48.3331 21.684 49.6631 23.14 53.2191 23.14C56.2571 23.14 57.4471 21.978 57.4471 20.284Z" fill="#151515"/>
</g>
<defs>
<clipPath id="clip0_0_203">
<rect width="76" height="36" fill="white"/>
</clipPath>
</defs>
</svg>
