<svg width="100" height="100" viewBox="0 0 100 100" fill="none" xmlns="http://www.w3.org/2000/svg">
<rect opacity="0.01" width="100" height="100" fill="white"/>
<path fill-rule="evenodd" clip-rule="evenodd" d="M84.4611 13.5911L84.4603 13.5942C85.2234 30.4643 80.3344 43.6211 69.9394 52.7148C70.2632 54.1106 71.3323 60.0446 67.2849 64.2776C65.6672 65.97 64.1726 67.4739 62.8425 68.7478C62.3768 69.1991 61.7537 69.4514 61.1052 69.4514C60.9509 69.4513 60.797 69.4374 60.6452 69.4099C59.8476 69.2694 59.1674 68.7514 58.82 68.0198L55.5177 61.1662C52.7087 62.2368 49.7912 62.9973 46.817 63.4343L46.5778 63.4617L34.1769 51.0935L34.2033 50.8537C34.6346 47.8657 35.3915 44.9339 36.4606 42.1106C35.5841 41.7348 33.7239 40.8449 29.5905 38.8678L29.5836 38.8645C28.8537 38.5158 28.3351 37.8386 28.1887 37.0431C28.0423 36.2476 28.2859 35.4301 28.8439 34.8445C30.1061 33.5188 31.6061 32.0198 33.3019 30.3889C37.5244 26.3296 43.4609 27.3819 44.8576 27.7016C53.93 17.2713 67.0866 12.3436 83.9826 13.0701C84.0046 13.0739 84.0264 13.0792 84.0477 13.0861C84.2184 13.1063 84.3632 13.2207 84.4222 13.3822C84.4316 13.4113 84.4382 13.4412 84.4421 13.4716C84.4497 13.4965 84.4553 13.5219 84.4591 13.5476L84.4601 13.5846L84.4611 13.5911ZM68.9387 52.3204C68.9717 52.2526 69.0198 52.1933 69.0792 52.147C79.2889 43.3339 84.125 30.5176 83.4728 14.0588C67.0065 13.4576 54.2102 18.3263 45.4268 28.5609L45.4093 28.5801L45.4083 28.5813L45.4059 28.5831C45.361 28.6339 45.3063 28.675 45.2449 28.7038C45.2291 28.7101 45.2129 28.7155 45.1964 28.7201C45.1502 28.7376 45.1015 28.7481 45.0522 28.751C45.0441 28.7513 45.0366 28.7561 45.0284 28.7561C45.0072 28.7538 44.9863 28.7501 44.9656 28.7451C44.9428 28.7452 44.9201 28.7436 44.8976 28.7405C44.8326 28.7224 38.2872 26.9826 33.9952 31.1096C32.3097 32.7302 30.8205 34.219 29.5685 35.5339C29.231 35.8875 29.0835 36.3814 29.172 36.8621C29.2604 37.3428 29.574 37.7519 30.0152 37.9621C30.0152 37.9621 37.1925 41.3957 37.2872 41.4407L37.7028 41.6369L37.5426 42.0681C36.4727 44.8672 35.6971 47.7701 35.2282 50.7297L46.9386 62.4094C49.8968 61.932 52.7974 61.1482 55.5934 60.0705C56.0485 59.964 56.049 59.965 59.6743 67.4896L59.7208 67.5861C59.9326 68.0267 60.3427 68.3391 60.8238 68.4261C61.3048 68.5131 61.7984 68.3641 62.151 68.0256C63.4703 66.7619 64.9547 65.2683 66.5621 63.5861C70.6779 59.282 68.9186 52.7429 68.9005 52.677C68.8921 52.636 68.889 52.594 68.8914 52.5522C68.8913 52.545 68.8904 52.5379 68.8894 52.5309C68.8882 52.5214 68.8869 52.512 68.8878 52.5024C68.8931 52.4475 68.9077 52.394 68.9309 52.344C68.9343 52.3363 68.9349 52.3279 68.9387 52.3204Z" fill="black"/>
<path fill-rule="evenodd" clip-rule="evenodd" d="M53.4449 36.5974C53.4451 32.2912 56.9361 28.8004 61.2423 28.8005C65.5464 28.8058 69.0342 32.2938 69.0392 36.5979C69.0391 40.9041 65.5481 44.3949 61.2418 44.3948C56.9356 44.3946 53.4448 40.9036 53.4449 36.5974ZM54.9624 39.1989C56.0145 41.7388 58.4931 43.3949 61.2423 43.3948C64.9943 43.3905 68.0349 40.3499 68.0392 36.5979C68.0393 33.8487 66.3833 31.3701 63.8433 30.318C61.3034 29.2658 58.3798 29.8474 56.4358 31.7914C54.4918 33.7353 53.9103 36.659 54.9624 39.1989Z" fill="black"/>
<path d="M38.82 65.7702C38.583 65.6284 38.2758 65.7056 38.134 65.9426C37.9921 66.1796 38.0693 66.4868 38.3063 66.6286C40.1362 67.8117 41.2377 69.8451 41.2292 72.0241C41.1874 74.2288 40.2952 76.332 38.739 77.8943C37.1544 79.4682 35.1866 80.6014 33.03 81.1819C32.0773 81.4587 31.0759 81.657 30.1081 81.8489L29.3005 82.011C25.7413 82.7408 22.2489 83.7653 18.8595 85.074C18.7282 85.1248 18.5954 85.1824 18.4635 85.2459C18.028 85.4588 17.517 85.4511 17.088 85.2253C16.7181 85.0347 16.4651 84.675 16.4108 84.2624C16.1461 82.2821 16.2204 80.2711 16.6305 78.3157C17.2806 75.3675 18.4388 72.5551 20.0533 70.0041C20.8102 68.7644 20.8395 67.7278 20.1344 67.1609C19.8029 66.9284 19.4111 66.7969 19.0065 66.7824L15.7706 66.4123C15.6804 66.4045 15.591 66.3898 15.503 66.3683C15.5001 66.3595 15.4767 66.2741 15.5865 65.9865C16.6683 62.735 18.9345 60.0098 21.9342 58.3532C25.0734 56.8176 29.0055 57.3649 31.0782 59.6281C31.2649 59.8313 31.5809 59.8448 31.7843 59.6584C31.9877 59.4719 32.0017 59.156 31.8155 58.9523C29.4161 56.3332 25.0762 55.7028 21.4947 57.4548C18.2665 59.2219 15.8231 62.1412 14.652 65.6301C14.4282 66.071 14.4609 66.5986 14.7375 67.0085C14.9817 67.2535 15.3106 67.3956 15.6565 67.4055L18.8928 67.7756C19.1077 67.7803 19.3184 67.8365 19.507 67.9397C19.821 68.1921 19.5544 68.9026 19.1999 69.4827C17.5246 72.1332 16.3235 75.0551 15.6501 78.1175C15.2179 80.1838 15.1403 82.3087 15.4206 84.4011C15.5205 85.1292 15.9654 85.7644 16.6154 86.1072C16.977 86.2996 17.3805 86.3998 17.7902 86.3992C18.1734 86.3993 18.5517 86.3131 18.8971 86.1472C19.0045 86.0954 19.112 86.0487 19.2194 86.007C22.557 84.7184 25.9959 83.7094 29.5006 82.9904L30.3024 82.8298C31.2917 82.634 32.3146 82.4308 33.3092 82.1418C35.6341 81.5125 37.7544 80.287 39.4601 78.5866C41.1964 76.8359 42.1886 74.4817 42.2291 72.0163C42.2313 69.4894 40.9465 67.1353 38.82 65.7702Z" fill="black"/>
</svg>
