<svg width="100" height="100" viewBox="0 0 100 100" fill="none" xmlns="http://www.w3.org/2000/svg">
<rect opacity="0.01" width="100" height="100" fill="white"/>
<path d="M20.1317 38.5493C20.1744 38.5609 20.2185 38.5667 20.2628 38.5667C20.492 38.5664 20.6926 38.4122 20.7516 38.1906L26.7688 15.6459C27.2782 13.7565 29.2185 12.6336 31.1106 13.1333L49.739 18.1055C51.6314 18.6108 52.756 20.5543 52.251 22.4468L50.9522 27.3141C50.9175 27.4438 50.9359 27.5821 51.0031 27.6984C51.0704 27.8146 51.1811 27.8994 51.3109 27.934C51.5306 27.9924 51.7618 27.8939 51.8718 27.695C53.8202 26.1936 56.5123 26.1126 58.5474 27.4942C60.5824 28.8757 61.5007 31.4076 60.8244 33.7726C60.148 36.1375 58.0299 37.801 55.5721 37.8977C53.16 37.9891 50.9509 36.554 50.054 34.313C50.01 34.1393 49.8764 34.0026 49.7039 33.9547C49.4339 33.8849 49.158 34.0446 49.0839 34.3134L46.2339 44.9915C46.1992 45.1213 46.2175 45.2595 46.2848 45.3758C46.3521 45.4921 46.4628 45.5768 46.5926 45.6114C46.6353 45.623 46.6794 45.6289 46.7237 45.6288C46.953 45.6285 47.1535 45.4743 47.2126 45.2527L49.7245 35.8415C50.9573 37.7523 53.0735 38.9092 55.3474 38.9154C55.4355 38.9154 55.5236 38.9134 55.6117 38.91C58.3661 38.8137 60.7817 37.0432 61.7027 34.4455C62.6238 31.8478 61.863 28.9511 59.7845 27.1412C57.7059 25.3312 54.7321 24.9761 52.2857 26.2456L53.2297 22.7081C53.5417 21.5397 53.3767 20.2952 52.7711 19.2485C52.1654 18.2018 51.1687 17.4386 50.0002 17.1268L31.3718 12.1546C28.9389 11.5083 26.4419 12.9532 25.7901 15.3846L19.7729 37.9293C19.7382 38.0591 19.7565 38.1974 19.8238 38.3137C19.8911 38.4299 20.0018 38.5147 20.1317 38.5493Z" fill="black"/>
<path d="M84.2017 25.8658L61.5808 20.1411C61.4051 20.0963 61.2189 20.1488 61.0924 20.2787C60.966 20.4086 60.9186 20.5962 60.9681 20.7706C61.0176 20.945 61.1565 21.0797 61.3324 21.1238L83.9533 26.8485C84.8651 27.0794 85.6479 27.663 86.1294 28.471C86.6109 29.279 86.7517 30.2452 86.5208 31.1571L81.7905 49.8483C81.3095 51.747 79.3807 52.8965 77.4818 52.4163L72.5983 51.1803C72.327 51.1122 72.0518 51.2764 71.9828 51.5475C71.9292 51.7681 72.0308 51.9972 72.2303 52.1055C73.7479 54.0275 73.8664 56.7046 72.5247 58.7532C71.183 60.8019 68.6816 61.7631 66.3133 61.1401C63.945 60.5171 62.2403 58.4496 62.0802 56.0059C61.9202 53.5623 63.3406 51.29 65.6074 50.3634C65.6245 50.3535 65.641 50.3426 65.6567 50.3306C65.795 50.276 65.9004 50.1607 65.9424 50.0181C66.0106 49.7468 65.8464 49.4714 65.5753 49.4025L54.861 46.6911C54.6852 46.6458 54.4985 46.6981 54.3718 46.8281C54.245 46.9581 54.1975 47.1461 54.2472 47.3207C54.297 47.4954 54.4364 47.63 54.6126 47.6738L64.0552 50.0634C61.5935 51.698 60.4926 54.7518 61.3451 57.5811C62.1976 60.4104 64.8023 62.3477 67.7573 62.3503C67.877 62.3503 67.9973 62.3468 68.1175 62.3409C70.4086 62.2293 72.4827 60.9512 73.6123 58.9547C74.7418 56.9583 74.7692 54.5222 73.6847 52.5008L77.2336 53.399C78.4061 53.6959 79.6486 53.5148 80.6875 52.8955C81.7265 52.2761 82.4767 51.2694 82.7733 50.0967L87.5034 31.4055C88.1183 28.9644 86.6413 26.4863 84.2017 25.8658Z" fill="black"/>
<path d="M79.944 60.8535C79.8138 60.8198 79.6755 60.8394 79.5599 60.9081C79.4442 60.9767 79.3607 61.0887 79.328 61.2192L73.5696 83.8316C73.3376 84.7432 72.7529 85.5253 71.9442 86.0058C71.1355 86.4862 70.1691 86.6258 69.2575 86.3937L50.5732 81.6357C48.6763 81.1503 47.5303 79.2212 48.0112 77.3231L49.2541 72.4415C49.2874 72.3113 49.2675 72.1733 49.199 72.0577C49.1304 71.9422 49.0187 71.8586 48.8884 71.8255C48.6678 71.7693 48.4373 71.8707 48.3296 72.0713C46.6579 73.3926 44.3884 73.6699 42.4478 72.7899C40.5072 71.9099 39.2204 70.02 39.1128 67.8919C38.972 65.1209 40.8475 62.6512 43.5547 62.0431C46.2618 61.4349 49.0135 62.8651 50.0713 65.4301C50.1273 65.6497 50.3253 65.8031 50.5519 65.8024C50.7833 65.8022 50.9851 65.6452 51.0423 65.4209L53.7695 54.7112C53.8387 54.4401 53.675 54.1643 53.4039 54.0952C53.1328 54.026 52.857 54.1897 52.7879 54.4608L50.3839 63.901C48.9488 61.7366 46.3929 60.5957 43.8235 60.9725C41.2541 61.3492 39.1334 63.176 38.3802 65.6613C37.627 68.1465 38.3768 70.8432 40.3048 72.583C41.5336 73.6996 43.1352 74.317 44.7955 74.3143C44.9113 74.3143 45.0276 74.3114 45.1444 74.3054C46.1198 74.2529 47.0718 73.9865 47.9328 73.5252L47.0295 77.0728C46.7308 78.2448 46.91 79.4875 47.5277 80.5273C48.1453 81.5672 49.1508 82.319 50.3228 82.6175L69.0072 87.3754C69.3774 87.47 69.7581 87.518 70.1402 87.5184C72.222 87.5123 74.0361 86.0991 74.5513 84.0821L80.3097 61.4695C80.343 61.3393 80.3231 61.2013 80.2545 61.0857C80.186 60.9702 80.0742 60.8866 79.944 60.8535Z" fill="black"/>
<path d="M38.2237 78.8352L15.6587 72.8928C14.7491 72.6533 13.9718 72.0623 13.498 71.2496C13.0242 70.437 12.8926 69.4695 13.1323 68.5599L18.0421 49.9152C18.5429 48.0225 20.4811 46.8922 22.375 47.3883L27.2462 48.6712C27.4906 48.7384 27.7466 48.6127 27.8429 48.3783C27.9392 48.1439 27.8454 47.8745 27.6244 47.7505C26.3163 46.0681 26.0572 43.796 26.9529 41.8623C27.8486 39.9285 29.7492 38.6568 31.8785 38.5667C34.6523 38.4484 37.1076 40.3463 37.692 43.0605C38.2764 45.7746 36.8198 48.5149 34.2431 49.5487C34.0722 49.5939 33.9383 49.7265 33.8913 49.8969C33.857 50.0268 33.8758 50.165 33.9434 50.2811C34.0111 50.3972 34.1221 50.4817 34.252 50.5159L44.9395 53.3303C45.2096 53.4004 45.4856 53.2389 45.5567 52.9691C45.6278 52.6992 45.4674 52.4227 45.1978 52.3506L35.7784 49.8701C38.8278 47.8983 39.7594 43.8608 37.8822 40.7522C36.0049 37.6437 31.9979 36.5886 28.8332 38.3695C25.6685 40.1504 24.4908 44.1231 26.1737 47.341L22.6333 46.4086C20.198 45.7678 17.7042 47.2219 17.0624 49.6569L12.1526 68.3016C11.8445 69.471 12.0136 70.715 12.6227 71.7597C13.2318 72.8045 14.231 73.5645 15.4004 73.8725L37.9654 79.8149C38.1407 79.8618 38.3276 79.8114 38.4556 79.6828C38.5835 79.5541 38.6329 79.3669 38.585 79.1919C38.5371 79.0169 38.3993 78.8808 38.2237 78.8352Z" fill="black"/>
</svg>
