<svg width="100" height="100" viewBox="0 0 100 100" fill="none" xmlns="http://www.w3.org/2000/svg">
<rect opacity="0.01" width="100" height="100" fill="white"/>
<path fill-rule="evenodd" clip-rule="evenodd" d="M77.6323 41.9162L86.3727 31.665C86.9076 31.074 87.1285 30.2632 86.9674 29.4826C86.8063 28.7019 86.2825 28.0449 85.5573 27.7138L60.3269 15.2417C60.0793 15.1193 59.7794 15.2207 59.6569 15.4683C59.5345 15.7158 59.6359 16.0158 59.8835 16.1382L85.1315 28.6187C85.5725 28.8158 85.8915 29.2133 85.9885 29.6865C86.0855 30.1597 85.9486 30.6506 85.6208 31.0054L76.7614 41.3958L64.8444 34.4498C64.6058 34.3106 64.2995 34.3913 64.1604 34.6299C64.0212 34.8686 64.1019 35.1749 64.3405 35.314L75.8149 42.002L49.6638 54.4917L23.5353 42.0124L34.529 35.9058C34.6864 35.8196 34.7856 35.6556 34.7889 35.4762C34.7921 35.2967 34.699 35.1293 34.5447 35.0374C34.3905 34.9456 34.1989 34.9434 34.0427 35.0318L22.8085 41.2719L14.0866 31.1113C13.7578 30.7561 13.6204 30.2641 13.7176 29.7899C13.8148 29.3157 14.1347 28.9174 14.5768 28.7202L39.1345 16.1348C39.2945 16.0538 39.3989 15.8932 39.408 15.7141C39.4171 15.535 39.3297 15.3647 39.1787 15.2678C39.0278 15.1709 38.8365 15.1623 38.6775 15.2451L14.1384 27.8213C13.415 28.1561 12.8945 28.8155 12.7369 29.5969C12.5793 30.3782 12.8035 31.1879 13.3405 31.7769L21.8792 41.7258L13.2868 49.8218C12.7044 50.3702 12.4196 51.1642 12.5208 51.9578C12.6221 52.7513 13.0971 53.4484 13.7985 53.833L21.945 58.3582V72.8174C21.9479 73.7796 22.5001 74.6556 23.3669 75.0733L48.5866 87.1182C49.2679 87.445 50.0606 87.445 50.7419 87.1182L75.9616 75.0733C76.8284 74.6556 77.3806 73.7796 77.3835 72.8174V58.1514L85.4235 53.7563C86.1263 53.3726 86.6027 52.6754 86.7047 51.8812C86.8067 51.087 86.5221 50.292 85.9391 49.7431L77.6323 41.9162ZM13.5134 51.833C13.4493 51.356 13.6204 50.8775 13.9724 50.5493L22.421 42.5887L48.6232 55.1032L38.1159 65.002C37.6451 65.4477 36.9406 65.539 36.3718 65.2281L14.2809 52.957C13.8581 52.7288 13.5721 52.3099 13.5134 51.833ZM22.945 72.8174C22.9467 73.3948 23.2782 73.9205 23.7985 74.1709L49.0183 86.2158C49.0658 86.2352 49.1144 86.2521 49.1638 86.2664V55.9673L38.8015 65.7295C38.0149 66.4731 36.8385 66.6244 35.8894 66.104L22.945 58.9137V72.8174ZM76.3835 72.8174C76.3818 73.3948 76.0503 73.9205 75.53 74.1709L50.3102 86.2158C50.2623 86.2354 50.2134 86.2524 50.1638 86.2668V56.5368L59.9216 65.7295C60.7086 66.4738 61.886 66.6251 62.8356 66.104L76.3835 58.6981L76.3835 72.8174ZM84.9441 52.8784C85.3676 52.6501 85.6543 52.2308 85.7136 51.7534C85.7768 51.2768 85.6054 50.799 85.2536 50.4712L76.8948 42.5948L50.3032 55.2948L60.6071 65.002C61.0797 65.4484 61.7863 65.539 62.3561 65.2261L84.9441 52.8784Z" fill="black"/>
<path d="M48.3112 37.7559C48.8965 38.3242 49.8276 38.3242 50.4128 37.7559L58.5749 29.75C58.7707 29.5561 58.7729 29.2405 58.5798 29.0439C58.3867 28.8473 58.0711 28.8439 57.8737 29.0361L49.862 36.8945V12.5C49.862 12.2239 49.6382 12 49.362 12C49.0859 12 48.862 12.2239 48.862 12.5V36.8955L40.8493 29.0361C40.7218 28.9109 40.5371 28.8632 40.3649 28.911C40.1927 28.9588 40.059 29.0949 40.0143 29.2679C39.9696 29.441 40.0206 29.6247 40.1482 29.75L48.3112 37.7559Z" fill="black"/>
</svg>
