<svg width="120" height="40" viewBox="0 0 120 40" fill="none" xmlns="http://www.w3.org/2000/svg">
<path fill-rule="evenodd" clip-rule="evenodd" d="M45.739 12.0959H39.5619C39.1394 12.0956 38.7795 12.4029 38.7137 12.8203L36.2154 28.6601C36.1922 28.8089 36.2352 28.9604 36.3332 29.0747C36.4312 29.189 36.5743 29.2547 36.7248 29.2545H39.6739C40.0966 29.2546 40.4566 28.9469 40.522 28.5292L41.1958 24.2569C41.2612 23.8395 41.6206 23.5319 42.043 23.5316H43.9985C48.0675 23.5316 50.4159 21.5626 51.0292 17.6606C51.3056 15.9535 51.041 14.6123 50.2416 13.6729C49.3637 12.6414 47.8065 12.0959 45.739 12.0959ZM46.4517 17.881C46.1139 20.0975 44.4203 20.0975 42.7828 20.0975H41.8506L42.5046 15.9581C42.5441 15.7079 42.7598 15.5236 43.0131 15.5236H43.4403C44.5558 15.5236 45.6081 15.5236 46.1518 16.1595C46.4761 16.5388 46.5754 17.1025 46.4517 17.881ZM61.2456 17.8097H64.2037C64.354 17.8096 64.4967 17.8755 64.5942 17.9899C64.6917 18.1042 64.7342 18.2556 64.7104 18.404L63.1117 28.5283C63.0462 28.946 62.6863 29.2537 62.2635 29.2535H59.599C59.4484 29.2533 59.3054 29.1872 59.2078 29.0725C59.1102 28.9578 59.0676 28.8061 59.0914 28.6574L59.2233 27.8355C59.2233 27.8355 57.7628 29.529 55.129 29.529C53.5944 29.529 52.3046 29.0865 51.4031 28.0243C50.4204 26.869 50.0185 25.2125 50.3012 23.4801C50.845 20.0072 53.6368 17.5315 56.9056 17.5315C58.3309 17.5315 59.7589 17.8422 60.3993 18.7716L60.6061 19.0715L60.7371 18.2441C60.7766 17.9939 60.9923 17.8097 61.2456 17.8097ZM60.0804 23.5668C59.795 25.2568 58.4537 26.3912 56.743 26.3912C55.8841 26.3912 55.1976 26.1157 54.7568 25.5937C54.3197 25.0752 54.1535 24.3373 54.2926 23.5154C54.559 21.8399 55.9229 20.6684 57.6074 20.6684C58.4474 20.6684 59.1302 20.9475 59.5801 21.4741C60.0308 22.0061 60.2096 22.7485 60.0804 23.5668ZM76.9852 17.8097H79.9577C80.1493 17.8098 80.325 17.9162 80.4137 18.086C80.5025 18.2557 80.4897 18.4607 80.3804 18.6181L70.4937 32.889C70.3333 33.1202 70.0697 33.2579 69.7883 33.2575H66.8194C66.6268 33.2576 66.4502 33.1502 66.3618 32.979C66.2734 32.8079 66.2879 32.6017 66.3994 32.4446L69.4776 28.0992L66.2034 18.4907C66.1497 18.3333 66.1754 18.1595 66.2724 18.0244C66.3694 17.8892 66.5257 17.8092 66.692 17.8097H69.6131C69.9926 17.8099 70.3273 18.0586 70.4368 18.4221L72.1746 24.2253L76.2744 18.1863C76.4346 17.9511 76.7006 17.8101 76.9852 17.8097Z" fill="#151515"/>
<path fill-rule="evenodd" clip-rule="evenodd" d="M109.215 28.6601L111.75 12.5303C111.79 12.2803 112.005 12.0959 112.258 12.095H115.112C115.263 12.0952 115.405 12.1613 115.503 12.2757C115.601 12.3902 115.643 12.5416 115.62 12.6902L113.12 28.5292C113.055 28.9474 112.695 29.2545 112.271 29.2545H109.723C109.572 29.2545 109.429 29.1886 109.332 29.0743C109.234 28.96 109.191 28.8086 109.215 28.6601ZM89.7992 12.0959H83.6212C83.199 12.0961 82.8397 12.4033 82.7739 12.8203L80.2756 28.6601C80.2521 28.8086 80.2948 28.96 80.3924 29.0743C80.4901 29.1886 80.6329 29.2545 80.7832 29.2545H83.9536C84.249 29.254 84.5003 29.0388 84.5461 28.7468L85.2551 24.2569C85.3205 23.8396 85.6799 23.5319 86.1023 23.5316H88.0569C92.1268 23.5316 94.4743 21.5626 95.0885 17.6606C95.3658 15.9536 95.0994 14.6123 94.3 13.6729C93.423 12.6414 91.8667 12.0959 89.7992 12.0959ZM90.5119 17.881C90.175 20.0976 88.4814 20.0976 86.843 20.0976H85.9117L86.5666 15.9581C86.6054 15.7078 86.821 15.5233 87.0742 15.5236H87.5014C88.616 15.5236 89.6692 15.5236 90.2129 16.1595C90.5372 16.5388 90.6356 17.1025 90.5119 17.881ZM105.307 17.8097H108.263C108.414 17.8095 108.557 17.8752 108.655 17.9894C108.753 18.1037 108.796 18.2552 108.773 18.404L107.174 28.5283C107.108 28.9456 106.749 29.2533 106.326 29.2536H103.663C103.512 29.2539 103.368 29.1879 103.27 29.0732C103.172 28.9584 103.13 28.8065 103.153 28.6574L103.285 27.8355C103.285 27.8355 101.825 29.529 99.191 29.529C97.6564 29.529 96.3684 29.0865 95.4652 28.0243C94.4825 26.869 94.0823 25.2125 94.3641 23.4801C94.9079 20.0072 97.6988 17.5315 100.968 17.5315C102.393 17.5315 103.82 17.8422 104.46 18.7716L104.668 19.0715L104.799 18.2441C104.838 17.9937 105.053 17.809 105.307 17.8097ZM104.14 23.5668C103.856 25.2568 102.513 26.3912 100.802 26.3912C99.9452 26.3912 99.2569 26.1157 98.8161 25.5937C98.379 25.0752 98.2146 24.3373 98.3519 23.5154C98.6201 21.8399 99.9822 20.6684 101.667 20.6684C102.507 20.6684 103.19 20.9475 103.639 21.4741C104.092 22.0061 104.271 22.7485 104.14 23.5668Z" fill="#151515"/>
<path d="M10.5629 32.3326L11.0353 29.3321L9.98302 29.3077H4.95837L8.45024 7.16696C8.47173 7.02714 8.5924 6.92415 8.73386 6.9249H17.2061C20.0188 6.9249 21.9598 7.51019 22.9732 8.66542C23.4483 9.20735 23.7509 9.77367 23.8972 10.3969C24.0508 11.0508 24.0535 11.8321 23.9035 12.785L23.8927 12.8546V13.4652L24.3678 13.7343C24.7305 13.9181 25.0565 14.1666 25.3297 14.4677C25.7362 14.9311 25.999 15.52 26.1101 16.2182C26.2248 16.9363 26.1869 17.7907 25.999 18.7581C25.7822 19.8708 25.4318 20.84 24.9585 21.633C24.5409 22.3435 23.9794 22.9588 23.3101 23.4395C22.6815 23.8857 21.9345 24.2244 21.09 24.4412C20.2717 24.6543 19.3386 24.7618 18.3153 24.7618H17.6559C17.1844 24.7618 16.7265 24.9316 16.367 25.236C16.008 25.5436 15.7699 25.9687 15.695 26.4355L15.6453 26.7055L14.8108 31.9939L14.7728 32.1881C14.7629 32.2495 14.7457 32.2803 14.7204 32.301C14.6959 32.3211 14.6654 32.3322 14.6337 32.3326H10.5629Z" fill="#253B80"/>
<path d="M24.8176 12.925C24.7923 13.0867 24.7634 13.252 24.7308 13.4218C23.6136 19.1582 19.7911 21.1399 14.9092 21.1399H12.4235C11.8265 21.1399 11.3234 21.5734 11.2303 22.1623L9.95768 30.2335L9.59729 32.5214C9.56824 32.7051 9.62103 32.8923 9.74177 33.0337C9.86251 33.1751 10.0391 33.2566 10.225 33.2566H14.6337C15.1557 33.2566 15.5992 32.8773 15.6814 32.3625L15.7248 32.1385L16.5548 26.8708L16.6081 26.5818C16.6894 26.0652 17.1338 25.6858 17.6559 25.6858H18.3152C22.5866 25.6858 25.9303 23.9516 26.9076 18.9333C27.3159 16.8369 27.1045 15.0865 26.0243 13.8554C25.6819 13.4745 25.273 13.1593 24.8176 12.925V12.925Z" fill="#636363"/>
<path d="M23.6488 12.459C23.292 12.3558 22.9291 12.2752 22.5622 12.2178C21.8372 12.1064 21.1045 12.0529 20.371 12.0579H13.7305C13.2083 12.0575 12.7638 12.438 12.6836 12.9539L11.271 21.9013L11.2303 22.1623C11.3213 21.5738 11.828 21.1396 12.4235 21.1399H14.9092C19.7911 21.1399 23.6136 19.1573 24.7309 13.4218C24.7643 13.252 24.7923 13.0867 24.8176 12.925C24.5227 12.7704 24.2155 12.6408 23.899 12.5376C23.816 12.51 23.7326 12.4838 23.6488 12.459Z" fill="#393939"/>
<path d="M12.6837 12.9539C12.7632 12.4377 13.2082 12.0572 13.7305 12.0588H20.371C21.1577 12.0588 21.892 12.1103 22.5622 12.2187C23.0158 12.29 23.463 12.3966 23.8999 12.5375C24.2296 12.6468 24.5358 12.776 24.8185 12.925C25.1509 10.8052 24.8158 9.36181 23.6696 8.05484C22.406 6.616 20.1253 6 17.207 6H8.73476C8.13863 6 7.63011 6.43355 7.53798 7.02335L4.00908 29.3917C3.97581 29.6019 4.03617 29.8161 4.17426 29.978C4.31235 30.1399 4.51436 30.2333 4.72714 30.2335H9.95772L11.271 21.9013L12.6837 12.9539Z" fill="#151515"/>
<path opacity="0.01" fill-rule="evenodd" clip-rule="evenodd" d="M0 0H120V40H0V0Z" fill="white"/>
</svg>
